<svg id="logo-eurocontrol" data-name="logo-eurocontrol" xmlns="http://www.w3.org/2000/svg" xmlns:xlink="http://www.w3.org/1999/xlink" width="100" height="100" viewBox="0 0 100 100">
  <defs>
    <filter id="filter-2" x="-6.5%" y="-5.5%" width="113%" height="113%" name="filter-2">
      <feOffset result="shadowOffsetOuter1" dy="1" in="SourceAlpha"/>
      <feGaussianBlur result="shadowBlurOuter1" stdDeviation="2" in="shadowOffsetOuter1"/>
      <feColorMatrix values="0 0 0 0 0 0 0 0 0 0 0 0 0 0 0 0 0 0 0.1 0" in="shadowBlurOuter1"/>
    </filter>
  </defs>
  <g id="Logo_Full-color" data-name="Logo/Full-color">
    <g id="bg">
      <g style="filter: url(#filter-2)">
        <rect id="path-1" width="100" height="100"/>
      </g>
      <rect id="path-1-2" data-name="path-1" width="100" height="100" style="fill: #fff"/>
    </g>
  </g>
  <path d="M72.58,27.22A27.7,27.7,0,0,0,23,49L50.85,36.63H35.57A15.93,15.93,0,0,1,61.24,32Z" style="fill: #036"/>
  <polygon points="78.24 25.88 50.37 54.23 15.01 54.23 78.24 25.88" style="fill: #2990ea"/>
  <polygon points="20.87 81.23 18.37 81.23 18.37 83.25 21.16 83.25 21.16 84.21 17.12 84.21 17.12 77.48 21.06 77.48 21.06 78.44 18.37 78.44 18.37 80.27 20.87 80.27 20.87 81.23" style="fill: #036"/>
  <path d="M23.46,77.48v3.94c0,1.35.58,1.92,1.35,1.92s1.44-.57,1.44-1.92V77.48h1.26v3.85c0,2.11-1.06,3-2.69,3s-2.6-.87-2.6-3V77.48Z" style="fill: #036"/>
  <path d="M29,77.58a9.29,9.29,0,0,1,1.82-.19,3.29,3.29,0,0,1,2.12.57,1.61,1.61,0,0,1,.57,1.35,1.65,1.65,0,0,1-1.25,1.63,1.86,1.86,0,0,1,1,1.25A14.48,14.48,0,0,0,33.66,84H32.41a9.46,9.46,0,0,1-.48-1.54c-.2-.87-.48-1.15-1.25-1.15H30.1v2.78H28.85V77.58Zm1.15,3h.77c.86,0,1.34-.48,1.34-1.16s-.48-1.05-1.34-1.05c-.39,0-.67,0-.77.09Z" style="fill: #036"/>
  <path d="M37.3,84.31c-1.92,0-3.08-1.44-3.08-3.47a3.29,3.29,0,0,1,3.17-3.55,3.06,3.06,0,0,1,3.08,3.36c.1,2.41-1.34,3.66-3.17,3.66m.1-1c1.15,0,1.83-1,1.83-2.5,0-1.24-.68-2.49-1.83-2.49s-1.83,1.15-1.83,2.49.58,2.5,1.83,2.5" style="fill: #036"/>
  <path d="M46.43,84a6,6,0,0,1-1.73.29,3.21,3.21,0,0,1-3.46-3.37,3.38,3.38,0,0,1,3.56-3.55,5,5,0,0,1,1.63.28l-.29,1a3.66,3.66,0,0,0-1.34-.29,2.45,2.45,0,0,0,0,4.9,6.1,6.1,0,0,0,1.34-.19Z" style="fill: #036"/>
  <path d="M49.89,84.31c-1.92,0-3.08-1.44-3.08-3.47A3.29,3.29,0,0,1,50,77.29a3.06,3.06,0,0,1,3.08,3.36c.1,2.41-1.25,3.66-3.17,3.66m.1-1c1.15,0,1.82-1,1.82-2.5,0-1.24-.67-2.49-1.82-2.49s-1.83,1.15-1.83,2.49.67,2.5,1.83,2.5" style="fill: #036"/>
  <path d="M54.22,84.21V77.48h1.44l1.73,2.88a18.53,18.53,0,0,1,1.15,2.21,23.65,23.65,0,0,1-.1-2.79v-2.3h1.15v6.73H58.34l-1.82-3a24.94,24.94,0,0,1-1.16-2.31,25.2,25.2,0,0,1,.1,2.88v2.41Z" style="fill: #036"/>
  <polygon points="62.19 78.54 60.27 78.54 60.27 77.48 65.36 77.48 65.36 78.54 63.44 78.54 63.44 84.21 62.19 84.21 62.19 78.54" style="fill: #036"/>
  <path d="M66.13,77.58A9.32,9.32,0,0,1,68,77.39a3.26,3.26,0,0,1,2.11.57,1.61,1.61,0,0,1,.58,1.35,1.67,1.67,0,0,1-1.25,1.63,1.85,1.85,0,0,1,1,1.25A14.48,14.48,0,0,0,70.84,84H69.59a10.55,10.55,0,0,1-.48-1.54c-.19-.87-.48-1.15-1.25-1.15h-.57v2.78H66V77.58Zm1.25,3h.77c.87,0,1.34-.48,1.34-1.16s-.47-1.05-1.34-1.05c-.39,0-.67,0-.77.09Z" style="fill: #036"/>
  <path d="M74.59,84.31c-1.92,0-3.08-1.44-3.08-3.47a3.3,3.3,0,0,1,3.18-3.55,3.05,3.05,0,0,1,3.07,3.36c0,2.41-1.35,3.66-3.17,3.66m.1-1c1.15,0,1.82-1,1.82-2.5,0-1.24-.67-2.49-1.82-2.49s-1.83,1.15-1.83,2.49.57,2.5,1.83,2.5" style="fill: #036"/>
  <polygon points="78.82 77.48 80.07 77.48 80.07 83.15 82.85 83.15 82.85 84.21 78.91 84.21 78.91 77.48 78.82 77.48" style="fill: #036"/>
  <path d="M49.88,59.48a16.17,16.17,0,0,1-10.26-3.63H24.78a28.27,28.27,0,0,0,50.68-.77H61a16.26,16.26,0,0,1-11.15,4.4" style="fill: #036"/>
</svg>
